<svg id="Calque_1" data-name="Calque 1" xmlns="http://www.w3.org/2000/svg" viewBox="0 0 148.76 185.67"><defs><style>.cls-1{fill:#c52d28;}.cls-2{fill:#030402;}.cls-3{fill:#131414;}</style></defs><path class="cls-1" d="M45.48,92.24C38.17,89.75,31.13,87.37,24.1,85,4.28,78.17-15.51,71.29-35.38,64.64-38.73,63.52-40,62-40,58.35c.18-21.67.05-43.34.11-65,0-11.85,9.68-19.21,21-15.5C1.65-15.4,22.06-8.27,42.45-1.08,44-.54,45.94,1.77,46,3.28c.2,28.66.14,57.33.11,86A19.29,19.29,0,0,1,45.48,92.24Z" transform="translate(43.51 65.54)"/><path class="cls-2" d="M100.09,66c-5.91-2-11.6-3.72-17-6-1.12-.48-1.74-3.3-1.75-5-.11-24.32-.21-48.65,0-73,0-4.6-1.33-6.76-5.73-8.23C53-33.85,30.37-41.7,7.75-49.44,2.9-51.1,2.36-52.4,4.58-57c3-6.16,10.94-10.09,17.64-7.9C41.47-58.64,60.61-52,79.8-45.51c5.82,2,11.71,3.76,17.38,6.09,1.51.62,3.32,2.91,3.33,4.44.18,32.65.14,65.3.11,97.95A20.12,20.12,0,0,1,100.09,66Z" transform="translate(43.51 65.54)"/><path class="cls-3" d="M71.59,80.32c-5.18-1.8-10.24-3.33-15.05-5.43-1-.43-1.44-3-1.44-4.58C55,46.83,55,23.36,55.13-.12c0-4-.93-6-5.12-7.39C28.57-14.58,7.27-22.07-14.08-29.43c-1.72-.59-3.4-1.29-5.06-1.93A14.42,14.42,0,0,1-.84-42.94c9.29,2.41,18.31,5.9,27.43,9,13.84,4.69,27.65,9.46,41.49,14.16,2.29.78,4.06,1.45,4,4.63C72,15.82,72,46.78,72,77.75A20.71,20.71,0,0,1,71.59,80.32Z" transform="translate(43.51 65.54)"/><path class="cls-1" d="M87.51,111.6c-1.24,2.32-2.18,4.23-3.26,6.06-1.43,2.43-3.1,2.36-4.5,0-1.31-2.18-2.39-4.5-4.53-6.47-.31,2.85-.61,5.7-.92,8.55l-1.5-.09V102c5.7,2.56,5,9.41,9.22,13,3.92-3.46,3.51-10.22,9-13.59v14.27l-1,.17Z" transform="translate(43.51 65.54)"/><path class="cls-1" d="M61.87,119.93a8.36,8.36,0,0,1-8.6-8.9,8.64,8.64,0,1,1,17.28.07A8.39,8.39,0,0,1,61.87,119.93Zm.22-2.45c4-.25,5.6-2.83,5.55-6.31s-1.7-6.11-5.65-6.27a6,6,0,0,0-5.88,6.6C56.45,115,58.17,117.42,62.09,117.48Z" transform="translate(43.51 65.54)"/><path class="cls-1" d="M19,119.93c-5.14,0-8.58-3.68-8.45-9a8.57,8.57,0,0,1,8.4-8.73,8.85,8.85,0,0,1,8.79,8.93A8.41,8.41,0,0,1,19,119.93Zm6-8.73c-.57-3.34-1.84-6.08-5.77-6.3a5.86,5.86,0,0,0-5.92,6.53c.26,3.51,1.88,6.09,5.86,6S24.5,114.65,25.05,111.2Z" transform="translate(43.51 65.54)"/><path class="cls-1" d="M97.4,118.74l5-3.79-8.88-3.58v-9.11c2.28,0,4.6-.55,6.44.15s4.92,3.51,4.71,3.9c-2.28,4.21,3.74,9.66-1.86,13-1.42.84-3.6.38-5.44.52Zm3.14-15.54-2.33,1.24c-.71,1-1.95,2-2,3,0,.78,1.7,2.41,2.25,2.25,1.33-.37,3.08-1.36,3.44-2.49S101.06,104.56,100.54,103.2Z" transform="translate(43.51 65.54)"/><path class="cls-1" d="M-18.3,118.81l5.22-4.11-8.45-3.2v-9.59c3.11.46,6.06.59,8.78,1.43a4.4,4.4,0,0,1,2.36,3.42,47.36,47.36,0,0,1-1.68,12c-.31,1-3.93,1-6,1.41Zm.46-14.55-1.84,1.9c.92,1.25,1.65,3.2,2.82,3.52.94.25,2.41-1.49,3.65-2.34Z" transform="translate(43.51 65.54)"/><path class="cls-1" d="M-40.72,120l5.75-5.6-8.54-2.7v-9.41c2.16,0,4.55-.51,6.57.15,1.78.57,3.14,2.43,4.69,3.72-3.38,4,3.69,9.74-2.21,13.1C-35.83,120.06-37.85,119.72-40.72,120Zm2.49-9.28,3.24-3.43c-1.24-.82-2.41-2-3.77-2.28-.56-.14-2.3,1.59-2.18,2.2C-40.7,108.33-39.48,109.23-38.23,110.74Z" transform="translate(43.51 65.54)"/><path class="cls-1" d="M32.35,113.36c-.31,2.14-.61,4.29-.92,6.44H29.57c-.16-3-.31-5.94-.48-9.23a18.55,18.55,0,0,0,3.7-.52c1.81-.68,3.51-1.63,5.26-2.47a51.41,51.41,0,0,0-5-2.64,17.73,17.73,0,0,0-3.83-.65l.28-2.16c3.14.41,6.43.38,9.32,1.44,1.15.42,2.47,4.19,1.9,4.83-2.07,2.33-4.9,4-7.45,5.88Z" transform="translate(43.51 65.54)"/><path class="cls-1" d="M-25.7,102.4c.43,5.69.87,11.37,1.33,17.3h-4.52c.49-5.93,1-11.68,1.43-17.44Z" transform="translate(43.51 65.54)"/><path class="cls-1" d="M6.67,102.43c.38,5.58.76,11.15,1.17,17.12H3.38c.52-5.79,1-11.53,1.54-17.27Z" transform="translate(43.51 65.54)"/><path class="cls-1" d="M-8,112.68V102.4l1.3,0v10.29Z" transform="translate(43.51 65.54)"/><ellipse class="cls-1" cx="87.32" cy="173.07" rx="1.02" ry="7.21"/><path class="cls-1" d="M.58,119.46h-9l0-1.34H.68Z" transform="translate(43.51 65.54)"/><path class="cls-1" d="M42.74,118h8.93l0,1.33H42.89Z" transform="translate(43.51 65.54)"/></svg>